# xmcd
#
# Track frame offsets:
#	150
#	20727
#	37653
#	62455
#	78392
#	94106
#	112255
#	130170
#	148646
#	170833
#	191191
#	214007
#
# Disc length: 2977 seconds
#
# Revision: 0
# Processed by: cddbd v1.5.2PL0 Copyright (c) Steve Scherf et al.
# Submitted via: EasyCDDAExtractor 16.0.9.1
#
DISCID=aa0b9f0c
DTITLE=Dark Tranquillity - Construct
DYEAR=2013
DGENRE=Melodic Death Metal
TTITLE0=For Broken Words
TTITLE1=The Science Of Noise
TTITLE2=Uniformity
TTITLE3=The Silence In Between
TTITLE4=Apathetic
TTITLE5=What Only You Know
TTITLE6=Endtime Hearts
TTITLE7=State Of Trust
TTITLE8=Weight Of The End
TTITLE9=None Becoming
TTITLE10=Immemorial
TTITLE11=Photon Dreams
EXTD=
EXTT0=
EXTT1=
EXTT2=
EXTT3=
EXTT4=
EXTT5=
EXTT6=
EXTT7=
EXTT8=
EXTT9=
EXTT10=
EXTT11=
PLAYORDER=
